# xmcd CD database file
#
# Track frame offsets:
#	150
#	15777
#	28107
#	38319
#	52483
#	68750
#	78197
#	89576
#	102738
#	114229
#	127049
#
# Disc length: 1880 seconds
#
# Revision: 0
# Processed by: cddbd v1.5.2PL0 Copyright (c) Steve Scherf et al.
# Submitted via: CDex 1.77
#
DISCID=8807560b
DTITLE=Travis Green - Travis Green and the Cheifs
DYEAR=2015
DGENRE=Blues
TTITLE0=You Got Me Where You Want Me
TTITLE1=Too Cool
TTITLE2=I Keep On Lovin
TTITLE3=Sinner
TTITLE4=Can We Fall In Love Again
TTITLE5=Party Again
TTITLE6=Oh Yeah
TTITLE7=Road Runs Cold
TTITLE8=Beggin' You Please
TTITLE9=Honey Bee
TTITLE10=Feel So Good
EXTD=YEAR: 2015
EXTT0=
EXTT1=
EXTT2=
EXTT3=
EXTT4=
EXTT5=
EXTT6=
EXTT7=
EXTT8=
EXTT9=
EXTT10=
PLAYORDER=
